/* XPM */
static char *drsosc_xpm[]={
"32 32 11 1",
". c None",
"b c #000000",
"d c #008000",
"e c #00ff00",
"i c #800000",
"g c #808000",
"c c #808080",
"# c #c0c0c0",
"h c #ff0000",
"f c #ffff00",
"a c #ffffff",
"................................",
"................................",
"................................",
"................................",
"................................",
"................................",
"#aaaaaaaaaaaaaaaaaaaaaaaaaaaaaa#",
"a#bbbbbbbbbbbbbbbbbbbbbbbbbbbb#c",
"abbbdbbbdbbbdbbbdbbbb#########bc",
"abbbdbbbdbbbdbbbdbbbb#########bc",
"abbbdbbbdbbbdbbbdbbbb###aabc##bc",
"adddddddddddddddddddb##a#edb##bc",
"abbbdbbbdbbbdbbbdbbbb##aeeeb##bc",
"abbbdbbbdbbbdbbbdbbbb##bdedb##bc",
"abbbdbbbdbbbdbbbdbbbb##cbbbc##bc",
"afffffddddddddgffffff#########bc",
"abbbgfbbdbbbgffgdbbbb#########bc",
"abbbdfbbdbbgfgbbdbbbb###aabc##bc",
"abbbdfbbdbgfgbbbdbbbb##a#hib##bc",
"addddfgddgfgddddddddb##ahhhb##bc",
"abbbdgfbdfgbdbbbdbbbb##bihib##bc",
"abbbdbfbgfbbdbbbdbbbb##cbbbc##bc",
"abbbdbfbfbbbdbbbdbbbb#########bc",
"adddddfgfdddddddddddb#########bc",
"abbbdbgfdbbbdbbbdbbbb##ab#ab##bc",
"abbbdbbbdbbbdbbbdbbbb##bb#bb##bc",
"abbbdbbbdbbbdbbbdbbbb#########bc",
"a#bbbbbbbbbbbbbbbbbbbbbbbbbbbbcc",
"#cccccccccccccccccccccccccccccc.",
"................................",
"................................",
"................................"};
